<?xml version="1.0" encoding="UTF-8" standalone="no"?>
<svg
   xmlns:dc="http://purl.org/dc/elements/1.1/"
   xmlns:cc="http://creativecommons.org/ns#"
   xmlns:rdf="http://www.w3.org/1999/02/22-rdf-syntax-ns#"
   xmlns:svg="http://www.w3.org/2000/svg"
   xmlns="http://www.w3.org/2000/svg"
   xmlns:sodipodi="http://sodipodi.sourceforge.net/DTD/sodipodi-0.dtd"
   xmlns:inkscape="http://www.inkscape.org/namespaces/inkscape"
   inkscape:version="1.0 (4035a4f, 2020-05-01)"
   sodipodi:docname="nuvolos_text_and_logo_acblue.svg"
   viewBox="0 0 2458 406"
   height="406"
   width="2458"
   id="svg1215"
   version="1.1">
  <metadata
     id="metadata1221">
    <rdf:RDF>
      <cc:Work
         rdf:about="">
        <dc:format>image/svg+xml</dc:format>
        <dc:type
           rdf:resource="http://purl.org/dc/dcmitype/StillImage" />
        <dc:title></dc:title>
      </cc:Work>
    </rdf:RDF>
  </metadata>
  <defs
     id="defs1219" />
  <sodipodi:namedview
     inkscape:current-layer="g1223"
     inkscape:window-maximized="1"
     inkscape:window-y="23"
     inkscape:window-x="0"
     inkscape:cy="210.28747"
     inkscape:cx="1120.701"
     inkscape:zoom="0.32861095"
     showgrid="false"
     id="namedview1217"
     inkscape:window-height="804"
     inkscape:window-width="1440"
     inkscape:pageshadow="2"
     inkscape:pageopacity="0"
     guidetolerance="10"
     gridtolerance="10"
     objecttolerance="10"
     borderopacity="1"
     bordercolor="#666666"
     pagecolor="#ffffff" />
  <g
     id="g1223"
     inkscape:label="Image"
     inkscape:groupmode="layer">
    <path
       id="path1229"
       d="m 1486,50.6001 c -33.19,4.0778 -65.53,17.4792 -88.57,42.4469 -41.4,44.888 -49.32,115.99 -32.32,172.953 7.24,24.256 20.05,47.429 38.92,64.612 33.38,30.403 78.4,38.71 121.97,33.359 13.87,-1.704 27.21,-5.753 40,-11.347 66.15,-28.936 88.88,-105.916 80.35,-172.624 -2.91,-22.774 -9.64,-45.254 -21.57,-65 -18.75,-31.0511 -48.48,-52.5075 -83.78,-60.6801 -17.77,-4.1151 -36.81,-5.9542 -55,-3.7198 m 544,0 c -33.66,4.1352 -66.47,17.8951 -89.61,43.4189 -14.77,16.29 -24.99,35.995 -31.21,56.981 -17.41,58.706 -9.33,133.833 36.87,177.783 34.12,32.46 80.72,40.684 125.95,34.902 12.12,-1.55 23.71,-5.227 35,-9.813 79.21,-32.19 99.8,-133.286 75.71,-207.872 -6.56,-20.322 -17.37,-39.335 -32,-54.9525 -17.7,-18.8925 -41.62,-31.2284 -66.71,-36.8159 -17.58,-3.9134 -36.02,-5.8402 -54,-3.6315 M 2251,301 c -2.38,9.182 -3.29,18.634 -4.68,27.999 -0.62,4.164 -1.84,9.254 0.24,13.199 2.16,4.082 7.45,5.921 11.45,7.61 10.78,4.56 22.47,7.743 33.99,9.767 45.01,7.907 101.89,5.193 128.33,-38.575 6.33,-10.466 9.7,-21.879 10.83,-34 0.95,-10.126 0.64,-21.026 -1.49,-31 -8.96,-42.068 -53.63,-59.353 -88.67,-75.356 -15.31,-6.991 -33.47,-15.014 -43.96,-28.695 -18.99,-24.75 0.44,-55.973 27.96,-61.5756 17.64,-3.5901 37.42,-1.1 54,5.6596 10.19,4.155 19.46,10.856 30,13.967 1.01,-9.05 2.59,-18.0062 4,-26.9991 0.66,-4.2151 1.85,-9.3035 -0.73,-13.1178 -2.66,-3.9375 -8.05,-5.7511 -12.27,-7.4233 -10.32,-4.092 -21,-7.106 -32,-8.64 -44.74,-6.2385 -100.31,4.8237 -116.49,53.1802 -3.3,9.88 -4.32,20.637 -3.66,31 0.66,10.284 2.67,20.708 7.28,30 14.55,29.328 50.7,43.129 78.87,55.666 18.39,8.184 41.75,17.43 51.55,36.337 14.71,28.345 -5.69,58.476 -34.55,64.657 -35.97,7.705 -68.97,-7.525 -100,-23.66 M 457,360 V 207 158 l 1,-32 c 45.033,63.661 92.879,125.584 139.625,188 7.473,9.978 14.912,19.984 22.334,29.999 3.71,5.006 7.508,11.722 13.362,14.468 4.429,2.078 9.92,1.535 14.678,1.531 3.81,-0.003 8.628,0.578 12.16,-1.148 5.578,-2.727 3.84,-12.839 3.841,-17.85 V 286 56 L 638.006,55.0163 626.993,57.6107 625,74.0001 V 117 223 l -1,58 C 599.364,248.065 574.851,215.032 550.345,182 534.007,159.978 517.664,137.958 501.24,116 L 471.459,76 C 466.876,69.8656 462.242,61.065 455.446,57.1503 450.622,54.3713 444.354,55.0059 439,55.0009 433.822,54.996 425.708,53.6154 421.15,56.6107 416.216,59.8533 418,70.0105 418,75 v 51 164 46 c 0,5.949 -1.534,14.668 1.15,20.159 1.796,3.673 6.325,3.706 9.872,3.802 9.314,0.251 18.66,0.039 27.978,0.039 M 944,55 c -2.554,15.2277 -1,31.5914 -1,47 v 85 68 c 0,8.813 2.331,21.779 -1.993,29.767 -5.6,10.344 -21.011,17.956 -31.007,23.355 -33.989,18.359 -92.661,31.746 -116.775,-9.128 C 780.021,276.614 784,247.857 784,223 V 118 c 0,-17.705 1.61,-36.2764 -0.209,-53.888 -0.785,-7.5964 -6.255,-8.0351 -12.8,-8.1002 C 761.055,55.9129 750.826,55.3518 741,57 c 3.407,21.9752 1,45.786 1,68 v 128 c 0,16.206 -0.553,32.285 4.141,48 11.943,39.984 47.639,60.442 87.859,61.902 15.115,0.548 30.252,0.139 45,-3.48 25.074,-6.152 44.548,-20.744 67,-32.422 l 3.405,21.978 3.963,9.029 10.638,1.981 L 985,360 V 56 l -41,-1 m 97,1 c 31.62,79.483 63.98,158.682 96.01,238 l 19,47 c 2.35,5.826 4.53,15.277 9.99,19.007 2.88,1.969 6.66,1.915 10.01,1.971 7.02,0.117 14.86,0.892 21.78,-0.391 8.21,-1.52 10.19,-11.981 12.92,-18.587 7.56,-18.255 14.66,-36.699 22.11,-55 31.41,-77.185 62.34,-154.586 93.18,-232 l -31,-0.994 -13.71,3.1442 -9.49,20.8498 -18.21,47 -43.44,112 -24.15,64 h -3 L 1161.46,245 1114.85,126 1096.2,78 1086.59,57.6107 1073,55.0045 1041,56 m 675,304 h 160 v -39 h -83 c -7.33,0 -14.67,0.1 -21.99,-0.022 -3.21,-0.053 -7.17,0.099 -9.86,-1.971 C 1756.82,315.671 1758,307.766 1758,303 V 261 109 71.001 c -0.01,-4.1155 0.97,-10.8839 -2.53,-13.9284 -3.88,-3.3644 -11.75,-2.071 -16.47,-2.0724 -5.56,-0.0017 -15.92,-1.8709 -20.47,2.0724 -3.68,3.2009 -2.53,10.6093 -2.53,14.9279 V 111 360 M 356,307 c -6.839,2.463 -13.6,5.526 -21,5.61 -20.873,0.238 -35.232,-16.515 -39,-35.61 -10.025,4.791 -19.466,10.17 -31,9.275 -18.722,-1.452 -36.002,-16.66 -39.322,-35.275 -1.66,-9.307 0.158,-18.258 3.322,-27 -8.979,-3.881 -16.858,-8.726 -22.46,-17.012 C 192.85,186.734 204.493,162.539 225,153 c -3.212,-5.829 -6.91,-11.465 -8.525,-18 -3.879,-15.695 5.214,-29.189 17.525,-38 -4.43,-11.3047 -11.06,-24.4922 -19.009,-33.729 -3.984,-4.6289 -9.731,-7.8286 -15.955,-6.1591 -7.54,2.0226 -11.549,9.6476 -15.179,15.8891 -7.55,12.9835 -15.113,25.962 -22.571,38.999 -30.964,54.13 -62.3881,108.005 -93.588,162 l -31.8128,55 c -4.1744,7.255 -10.101,16.313 -5.5698,24.769 C 35.174,362.836 46.219,361.995 55,362 h 68 187 c 14.666,0 29.334,0.073 44,-0.007 7.092,-0.038 14.851,-0.126 19.491,-6.41 4.267,-5.778 2.916,-12.569 -10e-4,-18.583 C 368.477,326.662 362.135,316.703 356,307 M 1487,89.4919 c 33.42,-3.9082 67.83,5.4511 90.35,31.5371 15.84,18.354 23.53,42.239 26.3,65.971 5.98,51.127 -8.91,109.605 -59.65,132.544 -8.52,3.85 -17.74,5.818 -27,6.892 -36.2,4.202 -71.41,-7.512 -93.61,-37.442 -13.26,-17.868 -19.64,-40.105 -21.83,-61.994 -5.07,-50.793 9.21,-107.217 59.44,-130.112 8.2,-3.74 17.03,-6.3472 26,-7.3961 m 544,0 c 32.34,-3.7817 66.1,4.8811 88.5,29.5811 16.98,18.724 25.09,43.219 28.04,67.927 6.14,51.468 -9.28,110.329 -60.54,132.972 -8.2,3.621 -17.13,5.435 -26,6.464 -30.9,3.587 -62.35,-4.001 -84.57,-26.711 -18.35,-18.763 -27.63,-44.027 -30.64,-69.725 -6.03,-51.496 8.13,-111.314 60.21,-133.66 7.93,-3.401 16.42,-5.8447 25,-6.8481 z"
       style="fill:#17a7c1;stroke:none;fill-opacity:1" />
  </g>
</svg>
